# xmcd
#
# Track frame offsets: 
#        150
#        18764
#        36147
#        52067
#        62708
#        79075
#        95860
#        110656
#
# Disc length: 1693 seconds
#
# Revision: 0
# Processed by: cddbd v1.5.2PL0 Copyright (c) Steve Scherf et al.
# Submitted via: ExactAudioCopy v1.3
#
DISCID=67069b08
DTITLE=Waylon - Seeds
DYEAR=2016
DGENRE=Pop
TTITLE0=Jailbird
TTITLE1=Careful Lovin’ You
TTITLE2=Between the Two of Us
TTITLE3=Nashville Boogie
TTITLE4=Walking on a Straight Line
TTITLE5=Outlaw Shoes
TTITLE6=Our Song
TTITLE7=Seeds
EXTD=
EXTT0=
EXTT1=
EXTT2=
EXTT3=
EXTT4=
EXTT5=
EXTT6=
EXTT7=
PLAYORDER=
